<svg width="56" height="56" viewBox="0 0 56 56" fill="none" xmlns="http://www.w3.org/2000/svg">
<g id="Icon" clip-path="url(#clip0_7905_78529)">
<g id="Group">
<path id="Vector" d="M56 7.46667V0H0V7.46667H1.86667V44.8H0.933333C0.418133 44.8 0 45.2172 0 45.7333C0 46.2495 0.418133 46.6667 0.933333 46.6667H1.86667H27.0667V48.5333C27.0667 48.5772 27.0863 48.6155 27.0919 48.6584C25.4735 49.0663 24.2667 50.5223 24.2667 52.2667C24.2667 54.3256 25.9411 56 28 56C30.0589 56 31.7333 54.3256 31.7333 52.2667C31.7333 50.5223 30.5265 49.0663 28.9081 48.6584C28.9137 48.6155 28.9333 48.5772 28.9333 48.5333V46.6667H54.1333H55.0667C55.5819 46.6667 56 46.2495 56 45.7333C56 45.2172 55.5819 44.8 55.0667 44.8H54.1333V7.46667H56ZM29.8667 52.2667C29.8667 53.2961 29.0295 54.1333 28 54.1333C26.9705 54.1333 26.1333 53.2961 26.1333 52.2667C26.1333 51.2372 26.9705 50.4 28 50.4C29.0295 50.4 29.8667 51.2372 29.8667 52.2667ZM1.86667 1.86667H54.1333V5.6H1.86667V1.86667ZM52.2667 44.8H3.73333V7.46667H52.2667V44.8Z" fill="currentColor"/>
<path id="Vector_2" d="M46.6667 38.2667H32.6667C32.1515 38.2667 31.7334 38.6839 31.7334 39.2001C31.7334 39.7162 32.1515 40.1334 32.6667 40.1334H46.6667C47.1819 40.1334 47.6001 39.7162 47.6001 39.2001C47.6001 38.6839 47.1819 38.2667 46.6667 38.2667Z" fill="currentColor"/>
<path id="Vector_3" d="M9.33324 33.5999H18.6666C19.1818 33.5999 19.5999 33.1827 19.5999 32.6666C19.5999 32.1505 19.1818 31.7333 18.6666 31.7333H9.33324C8.81804 31.7333 8.3999 32.1505 8.3999 32.6666C8.3999 33.1827 8.81804 33.5999 9.33324 33.5999Z" fill="currentColor"/>
<path id="Vector_4" d="M28 33.5999H42C42.5152 33.5999 42.9333 33.1827 42.9333 32.6666C42.9333 32.1505 42.5152 31.7333 42 31.7333H28C27.4848 31.7333 27.0667 32.1505 27.0667 32.6666C27.0667 33.1827 27.4848 33.5999 28 33.5999Z" fill="currentColor"/>
<path id="Vector_5" d="M22.6706 32.004C22.5026 32.1804 22.3999 32.4137 22.3999 32.6667C22.3999 32.9093 22.5026 33.152 22.6706 33.3293C22.8479 33.4973 23.0906 33.6 23.3332 33.6C23.5759 33.6 23.8186 33.4973 23.9959 33.3293C24.1639 33.152 24.2666 32.9093 24.2666 32.6667C24.2666 32.424 24.1639 32.1804 23.9959 32.004C23.6506 31.6587 23.0159 31.6587 22.6706 32.004Z" fill="currentColor"/>
<path id="Vector_6" d="M28 38.2667H14C13.4848 38.2667 13.0667 38.6839 13.0667 39.2001C13.0667 39.7162 13.4848 40.1334 14 40.1334H28C28.5152 40.1334 28.9333 39.7162 28.9333 39.2001C28.9333 38.6839 28.5152 38.2667 28 38.2667Z" fill="currentColor"/>
<path id="Vector_7" d="M9.33324 40.1334C9.5759 40.1334 9.81857 40.0307 9.9959 39.8627C10.1639 39.6854 10.2666 39.4427 10.2666 39.2001C10.2666 38.9574 10.1639 38.7138 9.9959 38.5467C9.65057 38.1921 9.02524 38.1921 8.67057 38.5374C8.50257 38.7138 8.3999 38.9574 8.3999 39.2001C8.3999 39.4427 8.50257 39.6854 8.67057 39.8627C8.8479 40.0307 9.09057 40.1334 9.33324 40.1334Z" fill="currentColor"/>
<path id="Vector_8" d="M46.0041 32.004C45.8361 32.1804 45.7334 32.4137 45.7334 32.6667C45.7334 32.9093 45.8361 33.152 46.0041 33.3293C46.1814 33.4973 46.4241 33.6 46.6667 33.6C46.9094 33.6 47.1521 33.4973 47.3294 33.3293C47.4974 33.152 47.6001 32.9093 47.6001 32.6667C47.6001 32.424 47.4974 32.1804 47.3294 32.004C46.9841 31.6587 46.3587 31.6587 46.0041 32.004Z" fill="currentColor"/>
<path id="Vector_9" d="M46.6667 18.6666H32.6667C32.1515 18.6666 31.7334 19.0838 31.7334 19.6C31.7334 20.1161 32.1515 20.5333 32.6667 20.5333H46.6667C47.1819 20.5333 47.6001 20.1161 47.6001 19.6C47.6001 19.0838 47.1819 18.6666 46.6667 18.6666Z" fill="currentColor"/>
<path id="Vector_10" d="M46.6666 25.2H37.3332C36.818 25.2 36.3999 25.6172 36.3999 26.1333C36.3999 26.6494 36.818 27.0666 37.3332 27.0666H46.6666C47.1818 27.0666 47.5999 26.6494 47.5999 26.1333C47.5999 25.6172 47.1818 25.2 46.6666 25.2Z" fill="currentColor"/>
<path id="Vector_11" d="M28 27.0666H29.8667C30.3819 27.0666 30.8 26.6494 30.8 26.1333C30.8 25.6172 30.3819 25.2 29.8667 25.2H28C27.4848 25.2 27.0667 25.6172 27.0667 26.1333C27.0667 26.6494 27.4848 27.0666 28 27.0666Z" fill="currentColor"/>
<path id="Vector_12" d="M28 14H42C42.5152 14 42.9333 13.5828 42.9333 13.0666C42.9333 12.5505 42.5152 12.1333 42 12.1333H28C27.4848 12.1333 27.0667 12.5505 27.0667 13.0666C27.0667 13.5828 27.4848 14 28 14Z" fill="currentColor"/>
<path id="Vector_13" d="M46.6667 14C46.9094 14 47.1521 13.8974 47.3294 13.7294C47.5067 13.552 47.6001 13.3094 47.6001 13.0667C47.6001 12.824 47.5067 12.5804 47.3294 12.404C46.9747 12.0587 46.3494 12.0587 46.0041 12.404C45.8361 12.5804 45.7334 12.824 45.7334 13.0667C45.7334 13.3094 45.8361 13.552 46.0041 13.7294C46.1814 13.8974 46.4241 14 46.6667 14Z" fill="currentColor"/>
<path id="Vector_14" d="M28.2707 18.9373C28.1027 19.1137 28 19.3471 28 19.6C28 19.8427 28.1027 20.0853 28.2707 20.2627C28.448 20.4307 28.6907 20.5333 28.9333 20.5333C29.176 20.5333 29.4187 20.4307 29.596 20.2627C29.764 20.0853 29.8667 19.8427 29.8667 19.6C29.8667 19.3471 29.764 19.1137 29.596 18.9373C29.2413 18.592 28.6253 18.592 28.2707 18.9373Z" fill="currentColor"/>
<path id="Vector_15" d="M32.9374 25.4707C32.7694 25.6471 32.6667 25.8907 32.6667 26.1333C32.6667 26.376 32.7694 26.6187 32.9374 26.796C33.1147 26.964 33.3574 27.0667 33.6001 27.0667C33.8427 27.0667 34.0854 26.964 34.2627 26.796C34.4307 26.6187 34.5334 26.376 34.5334 26.1333C34.5334 25.8907 34.4307 25.6471 34.2627 25.4707C33.9174 25.1253 33.2827 25.1253 32.9374 25.4707Z" fill="currentColor"/>
<path id="Vector_16" d="M23.3332 12.1333H8.3999V27.0666H23.3332V12.1333ZM21.4666 25.2H10.2666V14H21.4666V25.2Z" fill="currentColor"/>
</g>
</g>
<defs>
<clipPath id="clip0_7905_78529">
<rect width="56" height="56" fill="white"/>
</clipPath>
</defs>
</svg>
