<svg width="56" height="56" viewBox="0 0 56 56" fill="none" xmlns="http://www.w3.org/2000/svg">
<g id="Icon">
<g id="Group">
<path id="Vector" d="M56 38.9153V14.2373H47.4576C46.9327 14.2373 46.5085 14.6616 46.5085 15.1864C46.5085 15.7113 46.9327 16.1356 47.4576 16.1356H54.1017V37.0169H10.4407V16.1356H17.0847C17.6096 16.1356 18.0339 15.7113 18.0339 15.1864C18.0339 14.6616 17.6096 14.2373 17.0847 14.2373H10.4407V6.64407C10.4407 6.11919 10.0164 5.69491 9.49153 5.69491H7.45844C7.03417 4.06237 5.56108 2.84746 3.79661 2.84746C1.70278 2.84746 0 4.55024 0 6.64407C0 8.7379 1.70278 10.4407 3.79661 10.4407C5.56108 10.4407 7.03417 9.22576 7.45844 7.59322H8.54237V14.2373V15.1864V37.9661V38.9153V44.6102C8.54237 45.135 8.96664 45.5593 9.49153 45.5593H16.165C15.0023 46.4249 14.2373 47.7984 14.2373 49.3559C14.2373 51.9727 16.3662 54.1017 18.9831 54.1017C21.5999 54.1017 23.7288 51.9727 23.7288 49.3559C23.7288 47.7984 22.9638 46.4249 21.8011 45.5593H38.9447C37.782 46.4249 37.0169 47.7984 37.0169 49.3559C37.0169 51.9727 39.1459 54.1017 41.7627 54.1017C44.3795 54.1017 46.5085 51.9727 46.5085 49.3559C46.5085 47.7984 45.7435 46.4249 44.5807 45.5593H50.3051C50.83 45.5593 51.2542 45.135 51.2542 44.6102C51.2542 44.0853 50.83 43.661 50.3051 43.661H10.4407V38.9153H56ZM3.79661 8.54237C2.74969 8.54237 1.89831 7.69098 1.89831 6.64407C1.89831 5.59715 2.74969 4.74576 3.79661 4.74576C4.49614 4.74576 5.1017 5.13017 5.43105 5.69491H4.74576C4.22088 5.69491 3.79661 6.11919 3.79661 6.64407C3.79661 7.16895 4.22088 7.59322 4.74576 7.59322H5.43105C5.1017 8.15797 4.49614 8.54237 3.79661 8.54237ZM18.9831 52.2034C17.4132 52.2034 16.1356 50.9258 16.1356 49.3559C16.1356 47.786 17.4132 46.5085 18.9831 46.5085C20.5529 46.5085 21.8305 47.786 21.8305 49.3559C21.8305 50.9258 20.5529 52.2034 18.9831 52.2034ZM41.7627 52.2034C40.1928 52.2034 38.9153 50.9258 38.9153 49.3559C38.9153 47.786 40.1928 46.5085 41.7627 46.5085C43.3326 46.5085 44.6102 47.786 44.6102 49.3559C44.6102 50.9258 43.3326 52.2034 41.7627 52.2034Z" fill="currentColor"/>
<path id="Vector_2" d="M32.2713 28.4746C39.5987 28.4746 45.5594 22.5139 45.5594 15.1864C45.5594 7.85898 39.5987 1.8983 32.2713 1.8983C24.9438 1.8983 18.9832 7.85898 18.9832 15.1864C18.9832 22.5139 24.9438 28.4746 32.2713 28.4746ZM32.2713 3.79661C38.5518 3.79661 43.6611 8.9059 43.6611 15.1864C43.6611 21.467 38.5518 26.5763 32.2713 26.5763C25.9907 26.5763 20.8815 21.467 20.8815 15.1864C20.8815 8.9059 25.9907 3.79661 32.2713 3.79661Z" fill="currentColor"/>
<path id="Vector_3" d="M30.7137 20.6621C30.7754 20.7124 30.8447 20.7428 30.914 20.776C30.9425 20.7902 30.9681 20.813 30.9975 20.8235C31.1019 20.8614 31.212 20.8814 31.3212 20.8814C31.4541 20.8814 31.587 20.8519 31.7094 20.7969C31.7559 20.776 31.791 20.7342 31.8347 20.7058C31.9021 20.6612 31.9742 20.626 32.0302 20.5624L32.0483 20.5416C32.0483 20.5416 32.0492 20.5406 32.0501 20.5406C32.0501 20.5406 32.0511 20.5397 32.0511 20.5387L39.6225 12.0201C39.9708 11.629 39.9357 11.0282 39.5437 10.6808C39.1517 10.3315 38.5518 10.3666 38.2045 10.7596L31.2225 18.6148L26.2337 14.4575C25.8285 14.1224 25.2324 14.1765 24.8964 14.579C24.5604 14.9824 24.6154 15.5813 25.0179 15.9163L30.7137 20.6621Z" fill="currentColor"/>
</g>
</g>
</svg>
