<svg width="1em" height="1em" viewBox="0 0 64 65" fill="none" xmlns="http://www.w3.org/2000/svg">
<path opacity="0.2" d="M13.625 50.9541C11.325 48.6541 12.85 43.8291 11.675 41.0041C10.5 38.1791 6 35.7041 6 32.5791C6 29.4541 10.45 27.0791 11.675 24.1541C12.9 21.2291 11.325 16.5041 13.625 14.2041C15.925 11.9041 20.75 13.4291 23.575 12.2541C26.4 11.0791 28.875 6.5791 32 6.5791C35.125 6.5791 37.5 11.0291 40.425 12.2541C43.35 13.4791 48.075 11.9041 50.375 14.2041C52.675 16.5041 51.15 21.3291 52.325 24.1541C53.5 26.9791 58 29.4541 58 32.5791C58 35.7041 53.55 38.0791 52.325 41.0041C51.1 43.9291 52.675 48.6541 50.375 50.9541C48.075 53.2541 43.25 51.7291 40.425 52.9041C37.6 54.0791 35.125 58.5791 32 58.5791C28.875 58.5791 26.5 54.1291 23.575 52.9041C20.65 51.6791 15.925 53.2541 13.625 50.9541Z" fill="currentColor"/>
<path d="M43 26.5791L28.325 40.5791L21 33.5791M13.625 50.9541C11.325 48.6541 12.85 43.8291 11.675 41.0041C10.5 38.1791 6 35.7041 6 32.5791C6 29.4541 10.45 27.0791 11.675 24.1541C12.9 21.2291 11.325 16.5041 13.625 14.2041C15.925 11.9041 20.75 13.4291 23.575 12.2541C26.4 11.0791 28.875 6.5791 32 6.5791C35.125 6.5791 37.5 11.0291 40.425 12.2541C43.35 13.4791 48.075 11.9041 50.375 14.2041C52.675 16.5041 51.15 21.3291 52.325 24.1541C53.5 26.9791 58 29.4541 58 32.5791C58 35.7041 53.55 38.0791 52.325 41.0041C51.1 43.9291 52.675 48.6541 50.375 50.9541C48.075 53.2541 43.25 51.7291 40.425 52.9041C37.6 54.0791 35.125 58.5791 32 58.5791C28.875 58.5791 26.5 54.1291 23.575 52.9041C20.65 51.6791 15.925 53.2541 13.625 50.9541Z" stroke="currentColor" stroke-width="2" stroke-linecap="round" stroke-linejoin="round"/>
</svg>
