<svg width="1em" height="1em" viewBox="0 0 64 65" fill="none" xmlns="http://www.w3.org/2000/svg">
<path opacity="0.2" d="M10 44.5791V18.5791C10 17.5182 10.4214 16.5008 11.1716 15.7507C11.9217 15.0005 12.9391 14.5791 14 14.5791H50C51.0609 14.5791 52.0783 15.0005 52.8284 15.7507C53.5786 16.5008 54 17.5182 54 18.5791V44.5791H10Z" fill="currentColor"/>
<path d="M10 44.5791V18.5791C10 17.5182 10.4214 16.5008 11.1716 15.7507C11.9217 15.0005 12.9391 14.5791 14 14.5791H50C51.0609 14.5791 52.0783 15.0005 52.8284 15.7507C53.5786 16.5008 54 17.5182 54 18.5791V44.5791M36 22.5791H28M6 44.5791H58V48.5791C58 49.64 57.5786 50.6574 56.8284 51.4075C56.0783 52.1577 55.0609 52.5791 54 52.5791H10C8.93913 52.5791 7.92172 52.1577 7.17157 51.4075C6.42143 50.6574 6 49.64 6 48.5791V44.5791Z" stroke="currentColor" stroke-width="2" stroke-linecap="round" stroke-linejoin="round"/>
</svg>
