<svg width="1em" height="1em" viewBox="0 0 64 65" fill="none" xmlns="http://www.w3.org/2000/svg">
<path opacity="0.2" d="M52.575 9.55402L5.97499 22.679C5.57831 22.7875 5.2247 23.0156 4.96234 23.3323C4.69997 23.6489 4.54161 24.0388 4.50881 24.4487C4.47602 24.8587 4.57039 25.2687 4.77907 25.6231C4.98775 25.9775 5.3006 26.2589 5.67499 26.429L27.075 36.554C27.4942 36.7482 27.8309 37.0848 28.025 37.504L38.15 58.904C38.3201 59.2784 38.6016 59.5913 38.9559 59.7999C39.3103 60.0086 39.7204 60.103 40.1303 60.0702C40.5402 60.0374 40.9301 59.879 41.2468 59.6167C41.5634 59.3543 41.7915 59.0007 41.9 58.604L55.025 12.004C55.1245 11.664 55.1306 11.3034 55.0428 10.9602C54.955 10.6169 54.7765 10.3036 54.5259 10.0531C54.2754 9.80254 53.9621 9.62402 53.6189 9.53622C53.2756 9.44841 52.9151 9.45456 52.575 9.55402Z" fill="currentColor"/>
<path fill-rule="evenodd" clip-rule="evenodd" d="M53.8666 8.56741C53.3513 8.43561 52.8102 8.44435 52.2995 8.59268L52.2942 8.59423L5.71115 21.7144L5.70701 21.7156C5.11366 21.8787 4.5848 22.2204 4.19216 22.6943C3.79862 23.1693 3.56107 23.7541 3.51188 24.369C3.46268 24.9839 3.60424 25.599 3.91726 26.1305C4.22884 26.6596 4.69522 27.0803 5.25338 27.3359L26.6472 37.458L26.6472 37.458L26.6546 37.4614C26.8589 37.556 27.0229 37.72 27.1175 37.9243L27.1174 37.9243L27.1209 37.9317L37.243 59.3254C37.4985 59.8836 37.9192 60.35 38.4484 60.6616C38.9799 60.9747 39.595 61.1162 40.2099 61.067C40.8248 61.0178 41.4096 60.7803 41.8846 60.3867C42.3586 59.9941 42.7002 59.4652 42.8634 58.8718L42.8645 58.8677L55.9847 12.2847L55.9862 12.2795C56.1346 11.7688 56.1433 11.2276 56.0115 10.7123C55.8792 10.1953 55.6103 9.72335 55.2329 9.34597C54.8556 8.96859 54.3836 8.69967 53.8666 8.56741ZM52.846 10.5166L52.5749 9.55402L52.8556 10.5138C53.0235 10.4647 53.2015 10.4617 53.3709 10.505C53.5404 10.5484 53.695 10.6365 53.8187 10.7602C53.9424 10.8839 54.0305 11.0385 54.0739 11.208C54.1172 11.3774 54.1142 11.5554 54.0651 11.7233L54.065 11.7233L54.0623 11.7329L40.9373 58.3329L40.9353 58.3403C40.8811 58.5386 40.767 58.7154 40.6087 58.8466C40.4503 58.9778 40.2554 59.057 40.0504 59.0734C39.8455 59.0898 39.6404 59.0426 39.4632 58.9383C39.2861 58.8339 39.1454 58.6775 39.0603 58.4903L39.0538 58.4763L28.9323 37.0838L28.9303 37.0795C28.9285 37.0757 28.9268 37.0719 28.925 37.0681L39.732 26.2611C40.1225 25.8706 40.1225 25.2374 39.732 24.8469C39.3415 24.4564 38.7083 24.4564 38.3178 24.8469L27.5108 35.6539C27.5069 35.6521 27.503 35.6503 27.4991 35.6485L6.10255 25.5251L6.0886 25.5186C5.9014 25.4335 5.74498 25.2928 5.64064 25.1157C5.53629 24.9385 5.48911 24.7334 5.50551 24.5285C5.5219 24.3235 5.60109 24.1286 5.73227 23.9702C5.86345 23.8119 6.04025 23.6978 6.2386 23.6436L6.2386 23.6436L6.24598 23.6416L52.846 10.5166Z" fill="currentColor"/>
</svg>
