<svg width="56" height="56" viewBox="0 0 56 56" fill="none" xmlns="http://www.w3.org/2000/svg">
<g id="Icon" clip-path="url(#clip0_7907_79228)">
<g id="Group">
<path id="Vector" d="M8.3999 24.2667H15.8666V14.9333H8.3999V24.2667ZM10.2666 16.8H13.9999V22.4H10.2666V16.8Z" fill="currentColor"/>
<path id="Vector_2" d="M8.3999 35.4666H15.8666V26.1333H8.3999V35.4666ZM10.2666 28H13.9999V33.6H10.2666V28Z" fill="currentColor"/>
<path id="Vector_3" d="M8.3999 46.6666H15.8666V37.3333H8.3999V46.6666ZM10.2666 39.1999H13.9999V44.7999H10.2666V39.1999Z" fill="currentColor"/>
<path id="Vector_4" d="M33.6001 23.3333C33.0839 23.3333 32.6667 23.7505 32.6667 24.2666V32.6666C32.6667 33.1827 33.0839 33.5999 33.6001 33.5999C34.1162 33.5999 34.5334 33.1827 34.5334 32.6666V24.2666C34.5334 23.7505 34.1162 23.3333 33.6001 23.3333Z" fill="currentColor"/>
<path id="Vector_5" d="M33.6001 35.4668C33.0839 35.4668 32.6667 35.884 32.6667 36.4001V44.8001C32.6667 45.3163 33.0839 45.7335 33.6001 45.7335C34.1162 45.7335 34.5334 45.3163 34.5334 44.8001V36.4001C34.5334 35.884 34.1162 35.4668 33.6001 35.4668Z" fill="currentColor"/>
<path id="Vector_6" d="M28.9333 23.3333C28.4172 23.3333 28 23.7505 28 24.2666V25.1999C28 25.7161 28.4172 26.1333 28.9333 26.1333C29.4495 26.1333 29.8667 25.7161 29.8667 25.1999V24.2666C29.8667 23.7505 29.4495 23.3333 28.9333 23.3333Z" fill="currentColor"/>
<path id="Vector_7" d="M28.9333 28C28.4172 28 28 28.4172 28 28.9333V30.8C28 31.3161 28.4172 31.7333 28.9333 31.7333C29.4495 31.7333 29.8667 31.3161 29.8667 30.8V28.9333C29.8667 28.4172 29.4495 28 28.9333 28Z" fill="currentColor"/>
<path id="Vector_8" d="M28.9333 33.6001C28.4172 33.6001 28 34.0173 28 34.5334V35.4668C28 35.9829 28.4172 36.4001 28.9333 36.4001C29.4495 36.4001 29.8667 35.9829 29.8667 35.4668V34.5334C29.8667 34.0173 29.4495 33.6001 28.9333 33.6001Z" fill="currentColor"/>
<path id="Vector_9" d="M28.9333 38.2666C28.4172 38.2666 28 38.6838 28 39.1999V41.0666C28 41.5827 28.4172 41.9999 28.9333 41.9999C29.4495 41.9999 29.8667 41.5827 29.8667 41.0666V39.1999C29.8667 38.6838 29.4495 38.2666 28.9333 38.2666Z" fill="currentColor"/>
<path id="Vector_10" d="M28.2707 44.1373C28.1017 44.3137 28 44.5573 28 44.7999C28 45.0519 28.1017 45.2853 28.2707 45.4626C28.4471 45.6306 28.6907 45.7333 28.9333 45.7333C29.176 45.7333 29.4187 45.6306 29.596 45.4626C29.764 45.2853 29.8667 45.0519 29.8667 44.7999C29.8667 44.5573 29.764 44.3137 29.596 44.1373C29.2413 43.7919 28.6347 43.7826 28.2707 44.1373Z" fill="currentColor"/>
<path id="Vector_11" d="M44.8 1.8667H0V8.40003H2.8V50.1975C2.8 52.3675 4.56587 54.1334 6.73587 54.1334H38.0641C40.2341 54.1334 42 52.3675 42 50.1975V8.40003H44.8V1.8667ZM40.1333 50.1975C40.1333 51.339 39.2056 52.2667 38.0641 52.2667H6.73587C5.5944 52.2667 4.66667 51.339 4.66667 50.1975V6.53337H8.4V13.0667H15.8667V6.53337H24.2667V10.5047V11.8954V17.4954C24.2667 18.6555 25.2112 19.6 26.3713 19.6H33.838H35.2287C36.3888 19.6 37.3333 18.6555 37.3333 17.4954V10.5047V6.53337H40.1333V50.1975ZM10.2667 6.53337H14V11.2H10.2667V6.53337ZM31.7333 6.53337V8.40003H29.8667V6.53337H31.7333ZM35.4667 6.53337V8.4243C35.3873 8.41497 35.3099 8.40003 35.2287 8.40003H33.6V6.53337H35.4667ZM26.3713 17.7334C26.2397 17.7334 26.1333 17.627 26.1333 17.4954V13.9758C26.2127 13.9851 26.2901 14 26.3713 14H28V17.7334H26.3713ZM29.8667 14H31.4953C31.6269 14 31.7333 14.1064 31.7333 14.238V17.4954C31.7333 17.5766 31.7483 17.654 31.7576 17.7334H29.8667V14ZM33.6 17.4954V14.238C33.6 13.0779 32.6555 12.1334 31.4953 12.1334H26.3713C26.2397 12.1334 26.1333 12.027 26.1333 11.8954V10.5047C26.1333 10.3731 26.2397 10.2667 26.3713 10.2667H35.2287C35.3603 10.2667 35.4667 10.3731 35.4667 10.5047V17.4954C35.4667 17.627 35.3603 17.7334 35.2287 17.7334H33.838C33.7064 17.7334 33.6 17.627 33.6 17.4954ZM28 8.40003H26.3713C26.2901 8.40003 26.2127 8.41497 26.1333 8.4243V6.53337H28V8.40003ZM42.9333 6.53337H42V4.6667H37.3333H24.2667H15.8667H8.4H2.8V6.53337H1.86667V3.73337H42.9333V6.53337Z" fill="currentColor"/>
<path id="Vector_12" d="M55.7265 32.0068L50.1275 26.4078C50.0416 26.321 49.938 26.2528 49.8232 26.2052C49.5955 26.111 49.3388 26.111 49.1101 26.2052C48.9953 26.2528 48.8917 26.3219 48.8059 26.4078L43.2068 32.0068C42.8419 32.3718 42.8419 32.9616 43.2068 33.3266C43.3888 33.5086 43.6277 33.6 43.8667 33.6C44.1056 33.6 44.3445 33.5086 44.5265 33.3266L48.5333 29.3198V53.2C48.5333 53.7162 48.9505 54.1334 49.4667 54.1334C49.9828 54.1334 50.4 53.7162 50.4 53.2V29.3198L54.4068 33.3266C54.5888 33.5086 54.8277 33.6 55.0667 33.6C55.3056 33.6 55.5445 33.5086 55.7265 33.3266C56.0915 32.9616 56.0915 32.3718 55.7265 32.0068Z" fill="currentColor"/>
</g>
</g>
<defs>
<clipPath id="clip0_7907_79228">
<rect width="56" height="56" fill="white"/>
</clipPath>
</defs>
</svg>
