<svg width="1em" height="1em" viewBox="0 0 64 64" fill="none" xmlns="http://www.w3.org/2000/svg">
<path opacity="0.2" fill-rule="evenodd" clip-rule="evenodd" d="M52.8934 37.0995L45.1661 27.8218C45.4614 33.5065 44.0587 40.1265 39.7274 47.6815L47.1102 53.5878C47.3728 53.7963 47.6842 53.9343 48.0149 53.9887C48.3457 54.0431 48.6849 54.0122 49.0004 53.8988C49.3159 53.7854 49.5972 53.5934 49.8177 53.3408C50.0381 53.0883 50.1905 52.7837 50.2602 52.4558L53.2872 38.7729C53.3602 38.4829 53.3625 38.1795 53.294 37.8883C53.2255 37.5971 53.0881 37.3266 52.8934 37.0995ZM10.959 37.2472L18.6864 27.994C18.3911 33.6788 19.7938 40.2987 24.1251 47.8292L16.7422 53.7355C16.4814 53.9439 16.1718 54.0825 15.8426 54.1384C15.5134 54.1942 15.1754 54.1654 14.8604 54.0547C14.5453 53.9439 14.2637 53.7549 14.0418 53.5053C13.82 53.2557 13.6653 52.9539 13.5922 52.628L10.5653 38.9206C10.4923 38.6305 10.49 38.3271 10.5585 38.036C10.627 37.7448 10.7644 37.4743 10.959 37.2472Z" fill="currentColor"/>
<path fill-rule="evenodd" clip-rule="evenodd" d="M30.1373 4.67696C30.661 4.24314 31.3197 4.00562 31.9999 4.00562C32.6817 4.00562 33.3419 4.2442 33.8661 4.67987C36.2461 6.6176 41.3981 11.4251 44.2413 18.8156C45.231 21.3882 45.9359 24.2613 46.1526 27.4189L53.8054 36.6022C54.1015 36.9496 54.3105 37.3626 54.4151 37.8069C54.519 38.2485 54.5167 38.7084 54.4085 39.1489L51.3844 52.8437L51.3837 52.8468C51.2735 53.3381 51.0402 53.7933 50.7057 54.1697C50.3712 54.546 49.9465 54.8311 49.4715 54.9981C48.9964 55.1651 48.4867 55.2085 47.9903 55.1243C47.4939 55.0401 47.027 54.831 46.6337 54.5167L46.6332 54.5163L39.5243 48.8292H24.4758L17.3669 54.5163L17.3665 54.5167C16.9731 54.831 16.5062 55.0401 16.0098 55.1243C15.5134 55.2085 15.0037 55.1651 14.5287 54.9981C14.0537 54.8311 13.6289 54.546 13.2944 54.1697C12.9599 53.7933 12.7266 53.3381 12.6165 52.8468L12.6158 52.8437L9.59162 39.1489C9.48345 38.7085 9.48117 38.2486 9.58509 37.8069C9.68969 37.3624 9.89886 36.9492 10.1952 36.6018L17.7037 27.6107C17.9004 24.3732 18.619 21.4316 19.6398 18.8034C22.5111 11.4109 27.7301 6.60401 30.1373 4.67696ZM44.1834 27.9831C44.1674 27.8984 44.1625 27.8123 44.1686 27.727C43.9794 24.6962 43.3088 21.9619 42.3746 19.5337C39.7071 12.6 34.8477 8.05735 32.5992 6.22748L32.5893 6.21945L32.5894 6.21939C32.424 6.08127 32.2154 6.00562 31.9999 6.00562C31.7845 6.00562 31.5759 6.08127 31.4105 6.21939L31.3942 6.23274C29.1222 8.05028 24.1977 12.5927 21.5041 19.5275C20.5347 22.0235 19.8484 24.8434 19.6863 27.9766C19.6871 28.0215 19.6849 28.0664 19.6796 28.1112C19.4292 33.4608 20.7083 39.7179 24.7062 46.8292H39.2879C43.2365 39.6602 44.4691 33.3605 44.1834 27.9831ZM52.2729 37.8873L46.2018 30.602C46.0153 35.6429 44.567 41.3193 41.1592 47.5759L47.8821 52.9542C48.0105 53.0568 48.1628 53.125 48.3248 53.1525C48.4868 53.1799 48.6531 53.1658 48.8081 53.1113C48.9631 53.0568 49.1017 52.9638 49.2109 52.841C49.3197 52.7185 49.3957 52.5704 49.4318 52.4106L49.4321 52.4093L52.4584 38.705C52.4605 38.6955 52.4627 38.6861 52.4651 38.6767C52.499 38.5417 52.5001 38.4005 52.4682 38.265C52.4363 38.1295 52.3724 38.0036 52.2818 37.8979L52.2728 37.8874L52.2729 37.8873ZM17.6801 30.7591L11.7266 37.8882L11.7184 37.898L11.7183 37.898C11.6277 38.0036 11.5638 38.1295 11.5319 38.265C11.5 38.4005 11.5011 38.5417 11.5351 38.6767C11.5374 38.6861 11.5397 38.6955 11.5418 38.705L14.568 52.4093L14.5683 52.4105C14.6044 52.5704 14.6804 52.7185 14.7893 52.841C14.8984 52.9638 15.037 53.0568 15.192 53.1113C15.347 53.1658 15.5133 53.18 15.6753 53.1525C15.8373 53.125 15.9897 53.0568 16.118 52.9542L22.835 47.5806C19.3947 41.3894 17.9053 35.7639 17.6801 30.7591ZM27.0626 55.7042C27.0626 55.1519 27.5103 54.7042 28.0626 54.7042H35.9376C36.4899 54.7042 36.9376 55.1519 36.9376 55.7042C36.9376 56.2565 36.4899 56.7042 35.9376 56.7042H28.0626C27.5103 56.7042 27.0626 56.2565 27.0626 55.7042ZM34.9532 24.2042C34.9532 25.8352 33.631 27.1573 32.0001 27.1573C30.3691 27.1573 29.047 25.8352 29.047 24.2042C29.047 22.5732 30.3691 21.2511 32.0001 21.2511C33.631 21.2511 34.9532 22.5732 34.9532 24.2042Z" fill="currentColor"/>
</svg>
