<svg width="56" height="56" viewBox="0 0 56 56" fill="none" xmlns="http://www.w3.org/2000/svg">
<g id="Icon" clip-path="url(#clip0_7907_80009)">
<g id="Group">
<path id="Vector" d="M7.46678 14.9333H21.4668C21.982 14.9333 22.4001 14.5161 22.4001 14C22.4001 13.4839 21.982 13.0667 21.4668 13.0667H7.46678C6.95158 13.0667 6.53345 13.4839 6.53345 14C6.53345 14.5161 6.95158 14.9333 7.46678 14.9333Z" fill="currentColor"/>
<path id="Vector_2" d="M7.46678 12.1333H15.8668C16.382 12.1333 16.8001 11.7161 16.8001 11.1999C16.8001 10.6838 16.382 10.2666 15.8668 10.2666H7.46678C6.95158 10.2666 6.53345 10.6838 6.53345 11.1999C6.53345 11.7161 6.95158 12.1333 7.46678 12.1333Z" fill="currentColor"/>
<path id="Vector_3" d="M22.4001 16.8C22.4001 16.2839 21.982 15.8667 21.4668 15.8667H7.46678C6.95158 15.8667 6.53345 16.2839 6.53345 16.8C6.53345 17.3162 6.95158 17.7334 7.46678 17.7334H21.4668C21.982 17.7334 22.4001 17.3162 22.4001 16.8Z" fill="currentColor"/>
<path id="Vector_4" d="M56 3.73333H28.9333V0.933333C28.9333 0.4172 28.5152 0 28 0C27.4848 0 27.0667 0.4172 27.0667 0.933333V3.73333H0V42.9333H25.7469L14.2735 54.4068C13.9085 54.7717 13.9085 55.3616 14.2735 55.7265C14.4555 55.9085 14.6944 56 14.9333 56C15.1723 56 15.4112 55.9085 15.5932 55.7265L27.0667 44.2531V53.2C27.0667 53.7161 27.4848 54.1333 28 54.1333C28.5152 54.1333 28.9333 53.7161 28.9333 53.2V44.2531L40.4068 55.7265C40.5888 55.9085 40.8277 56 41.0667 56C41.3056 56 41.5445 55.9085 41.7265 55.7265C42.0915 55.3616 42.0915 54.7717 41.7265 54.4068L30.2531 42.9333H56V3.73333ZM54.1333 41.0667H1.86667V5.6H54.1333V41.0667Z" fill="currentColor"/>
<path id="Vector_5" d="M38.2666 18.6667H42.5469L31.3599 29.8536L23.6198 22.1135C23.2549 21.7486 22.665 21.7486 22.3001 22.1135L10.5401 33.8735C10.1751 34.2384 10.1751 34.8283 10.5401 35.1932C10.7221 35.3752 10.961 35.4667 11.1999 35.4667C11.4389 35.4667 11.6778 35.3752 11.8598 35.1932L22.9599 24.0931L30.7001 31.8332C30.8821 32.0152 31.121 32.1067 31.3599 32.1067C31.5989 32.1067 31.8378 32.0152 32.0198 31.8332L43.8666 19.9864V24.2667C43.8666 24.7828 44.2838 25.2 44.7999 25.2C45.3161 25.2 45.7333 24.7828 45.7333 24.2667V17.7334C45.7333 17.612 45.709 17.4907 45.6614 17.3768C45.5671 17.1482 45.3851 16.9662 45.1565 16.8719C45.0426 16.8243 44.9213 16.8 44.7999 16.8H38.2666C37.7514 16.8 37.3333 17.2172 37.3333 17.7334C37.3333 18.2495 37.7514 18.6667 38.2666 18.6667Z" fill="currentColor"/>
</g>
</g>
<defs>
<clipPath id="clip0_7907_80009">
<rect width="56" height="56" fill="white"/>
</clipPath>
</defs>
</svg>
