<svg width="1em" height="1em" viewBox="0 0 64 65" fill="none" xmlns="http://www.w3.org/2000/svg">
<path opacity="0.2" d="M31.9999 8.5791C27.1437 8.57768 22.4012 10.0495 18.399 12.8002C14.3969 15.5508 11.3233 19.4509 9.58436 23.9851C7.84542 28.5194 7.52291 33.4745 8.65945 38.1959C9.79598 42.9173 12.3381 47.1829 15.9499 50.4291C17.4549 47.4654 19.7511 44.9764 22.5841 43.2378C25.417 41.4992 28.676 40.579 31.9999 40.5791C30.0221 40.5791 28.0887 39.9926 26.4442 38.8938C24.7997 37.795 23.518 36.2332 22.7611 34.4059C22.0043 32.5787 21.8062 30.568 22.1921 28.6282C22.5779 26.6884 23.5303 24.9066 24.9289 23.508C26.3274 22.1095 28.1092 21.1571 30.049 20.7712C31.9888 20.3854 33.9995 20.5834 35.8268 21.3403C37.654 22.0972 39.2158 23.3789 40.3146 25.0234C41.4135 26.6679 41.9999 28.6013 41.9999 30.5791C41.9999 33.2313 40.9464 35.7748 39.071 37.6502C37.1956 39.5255 34.6521 40.5791 31.9999 40.5791C35.3238 40.579 38.5829 41.4992 41.4158 43.2378C44.2487 44.9764 46.545 47.4654 48.0499 50.4291C51.6618 47.1829 54.2039 42.9173 55.3404 38.1959C56.477 33.4745 56.1545 28.5194 54.4155 23.9851C52.6766 19.4509 49.603 15.5508 45.6008 12.8002C41.5987 10.0495 36.8562 8.57768 31.9999 8.5791Z" fill="currentColor"/>
<path d="M32 40.5791C37.5228 40.5791 42 36.1019 42 30.5791C42 25.0563 37.5228 20.5791 32 20.5791C26.4772 20.5791 22 25.0563 22 30.5791C22 36.1019 26.4772 40.5791 32 40.5791ZM32 40.5791C28.6759 40.5791 25.4168 41.498 22.5839 43.2369C19.7509 44.9758 17.4548 47.4652 15.95 50.4291M32 40.5791C35.3241 40.5791 38.5832 41.498 41.4161 43.2369C44.2491 44.9758 46.5452 47.4652 48.05 50.4291M56 32.5791C56 45.8339 45.2548 56.5791 32 56.5791C18.7452 56.5791 8 45.8339 8 32.5791C8 19.3243 18.7452 8.5791 32 8.5791C45.2548 8.5791 56 19.3243 56 32.5791Z" stroke="currentColor" stroke-width="2" stroke-linecap="round" stroke-linejoin="round"/>
</svg>
